<?xml version="1.0" encoding="utf-8"?>
<!-- Svg Vector Icons : http://www.onlinewebfonts.com/icon -->
<!DOCTYPE svg PUBLIC "-//W3C//DTD SVG 1.1//EN" "http://www.w3.org/Graphics/SVG/1.1/DTD/svg11.dtd">
<svg version="1.1" xmlns="http://www.w3.org/2000/svg" xmlns:xlink="http://www.w3.org/1999/xlink" x="0px" y="0px" viewBox="0 0 256 256" enable-background="new 0 0 256 256" xml:space="preserve">
<metadata> Svg Vector Icons : http://www.onlinewebfonts.com/icon </metadata>
<g><g><g><path fill="#F1291A" d="M136.7,29.5c-0.7,0.6-0.8,2.3-0.8,10.5c0,10.2,0.1,10.9,2.2,10.9s2.2-0.7,2.2-11.1c0-10.2-0.1-11.1-2-11.1C137.8,28.7,137,29.1,136.7,29.5z"/><path fill="#F1291A" d="M110.7,40.1c-0.5,0.2-0.9,1.1-0.9,1.8c0,1,1.5,2.8,6.5,7.9c3.6,3.6,6.9,6.6,7.4,6.8c1.4,0.4,2.9-0.7,2.9-2.2c0-1.1-1.3-2.7-6.8-8.1c-3.7-3.7-7.1-6.7-7.5-6.7C111.8,39.5,111.1,39.8,110.7,40.1z"/><path fill="#F1291A" d="M156.5,46.3c-4.6,4.6-6.8,7.1-6.8,7.9c0,1.2,1.2,2.6,2.3,2.6c0.8,0,13.6-12.3,14.5-13.9c0.6-1.2-0.7-3.3-2.1-3.3C163.7,39.5,160.8,42,156.5,46.3z"/><path fill="#F1291A" d="M133.7,57.2c-3.9,1.8-6.1,5.5-6.1,9.9v2.5h10.9h10.9l-0.3-3c-0.6-6.3-4.8-10.2-10.8-10.2C136.8,56.3,134.7,56.7,133.7,57.2z"/><path fill="#58595b" d="M23.5,76.9c-1.1,0.5-2.6,1.5-3.3,2.3c-3,3.2-2.9,0.9-2.9,49.9v44.7h-2.7c-2.3,0-2.8,0.2-3.7,1.3c-0.9,1.2-1,2-1,9.1c0,9.3,0.2,9.8,4.6,9.8h2.6l0.3,3.2c0.3,4,2,6.7,5.3,8.6c2,1.1,2.9,1.2,9.4,1.4l7.2,0.2l0.3-3.8c0.7-9.2,5.7-17.6,13.4-22.8c5-3.3,9.3-4.7,15.5-4.7c8.2,0,14.1,2.5,20.2,8.6c5.6,5.5,8.8,13,8.8,20.3v2.4H127h29.5v-2.1c0-8.4,5-18,11.9-23.2c5.8-4.4,10.1-5.8,17.1-5.8c8.2,0,14.2,2.5,20.2,8.5c2.2,2.2,4.4,4.9,5.3,6.7c1.9,3.7,3.5,9.7,3.5,13.3v2.7l8.3-0.2c7.7-0.1,8.4-0.2,10.4-1.4c3.2-1.9,5-4.6,5.3-8.6l0.3-3.2h2.6c4.4,0,4.6-0.4,4.6-9.8c0-7.1-0.1-7.9-1-9.1c-0.9-1.1-1.4-1.3-3.7-1.3h-2.7v-11.2v-11.2l-37.8-37.8l-37.7-37.7H94.3C28.4,75.9,25.4,76,23.5,76.9z M189,114c25.7,25.7,29.6,29.8,29.2,30.6c-0.5,0.8-3.2,0.9-43.8,1c-23.7,0-43.7,0-44.3-0.1l-1.1-0.2v-30.2c0-16.6,0.1-30.3,0.3-30.4c0.1-0.2,7-0.3,15.1-0.3h14.8L189,114z M78.1,86.2c14.8,3.8,26,15,29.7,30c1.4,5.6,1.1,15.6-0.5,20.9c-3.4,10.9-10.9,19.7-20.9,24.6c-6.6,3.3-9.5,3.9-17.9,3.9c-8.4,0-11.3-0.6-17.9-3.9c-10-4.9-16.8-12.8-20.7-24.1c-1.3-3.7-1.4-4.5-1.4-11.8c0-6.9,0.1-8.3,1.1-11.6c4.5-14.1,15-24.3,29.1-28C63.9,84.9,72.9,84.9,78.1,86.2z"/><path fill="#000000" d="M60.4,99.1c-0.1,0.3-0.3,3.1-0.3,6.1l-0.1,5.5l-4.7-2.7c-2.6-1.5-5.1-2.6-5.6-2.6c-1,0.1-8.1,11.7-8.2,13.3c0,0.6,1.6,1.8,4.9,3.7c2.7,1.6,4.9,3,4.9,3.1c0,0.1-2.2,1.5-4.8,2.9c-3.2,1.9-4.8,3-4.9,3.7c-0.1,1.3,6.8,13.2,7.9,13.4c0.4,0.1,3-1.1,5.6-2.6l4.8-2.8l0.2,6l0.2,6h8.1h8.1l0.1-6c0-3.3,0.3-6,0.5-5.9c0.2,0.1,2.4,1.3,4.9,2.8c2.5,1.5,4.9,2.6,5.4,2.5c1.1-0.2,8.1-12.1,7.9-13.4c-0.1-0.7-1.6-1.8-4.9-3.7c-2.7-1.5-4.8-2.8-4.8-2.9c0-0.1,2.2-1.5,4.8-3c3.2-1.9,4.8-3,4.9-3.7c0.1-1.5-6.8-13.2-8-13.4c-0.5,0-3.1,1.1-5.7,2.6l-4.7,2.7l-0.2-6l-0.2-6l-8-0.1C62.5,98.5,60.5,98.6,60.4,99.1z M70.5,102.5c1.2,1.2,1.2,1.5,0,3.9c-0.8,1.5-1.3,2-2.2,2c-0.7,0-1.2-0.3-1.2-0.7c0-0.3-0.3-1.3-0.7-2C64.8,102.6,68.1,100.1,70.5,102.5z M73.4,109.4c1.8,0.6,2.8,2.1,1.9,2.8c-1.3,1-2.4,1.1-4.3,0.3c-1.1-0.4-2.5-0.6-3.2-0.5c-3,0.7-4.2,4.1-2.2,5.9c1,0.9,1.4,3.2,0.5,3.2c-0.2,0-1.1-0.8-2-1.7c-2.1-2.4-2.2-5.4-0.1-7.2c1.6-1.5,3.2-2.4,5.3-2.9C71.4,108.8,71.7,108.8,73.4,109.4z M69.5,120.1c0,5.5-0.1,7.4-0.6,7.9c-0.4,0.3-0.8,0.4-1,0.2c-0.4-0.4-0.4-14.7,0-15c0.1-0.2,0.6-0.3,1-0.3C69.3,112.8,69.5,114.3,69.5,120.1z M73.2,124.3c0.9,2.2,0.2,3.6-3.4,7.2c-3,3-3.1,3.2-2.9,5c0.3,2.1,0,2.3-1.4,1c-1.8-1.6-1.2-3.5,2.6-7.1c3.3-3.3,4.3-5.2,2.9-6c-0.2-0.1-0.5-0.8-0.5-1.5c0-1.1,0.1-1.1,1-0.7C72,122.5,72.8,123.4,73.2,124.3z M68.5,143c-0.3,0.3-0.5-0.9-0.5-3.9c0-5.8,0.7-6.5,0.9-0.9C69,140.7,68.9,142.6,68.5,143z M71.4,140.8c0.6,1.9,0,3.5-1.5,4.5c-1.3,0.9-5.3,2.5-5.3,2.2c0-0.1,1.2-1,2.7-2c2.6-1.7,2.7-1.8,2.7-3.9C70,139,70.6,138.7,71.4,140.8z"/><path fill="#000000" d="M64.1,182.7c-7.3,1.4-14,7.2-16.7,14.3c-3,8.2-1.3,16.6,4.9,23.2c8.6,9.2,22.5,9.5,31.7,0.7c9.3-8.9,9.3-23.5-0.1-32.3C78.3,183.3,71.4,181.2,64.1,182.7z"/><path fill="#000000" d="M181.1,182.7c-11.4,2.2-19.7,14.1-17.8,25.4c2.1,12.4,13.5,20.8,25.7,19c13.1-2.1,21.8-15.1,18.4-27.8c-1.1-4.1-2.5-6.6-5.8-10C196.2,183.5,188.8,181.1,181.1,182.7z"/></g></g></g>
</svg>