<svg width="24" height="24" xmlns="http://www.w3.org/2000/svg" xmlns:xlink="http://www.w3.org/1999/xlink" version="1.1" x="0px" y="0px" viewBox="0 0 100 125" enable-background="new 0 0 100 100" xml:space="preserve"><g><path fill="#000000" d="M50,4.991c-21.169,0-38.338,17.169-38.338,38.338c0,10.588,4.294,20.175,11.232,27.113S50,94.991,50,94.991   S70.175,77.38,77.113,70.442c6.938-6.938,11.225-16.525,11.225-27.113C88.338,22.161,71.175,4.991,50,4.991z M50.104,74.221   c-16.936,0-30.671-13.734-30.671-30.671S33.168,12.88,50.104,12.88S80.775,26.614,80.775,43.55S67.041,74.221,50.104,74.221z"/><g><path d="M62.99,32.99C63.04,40.3,57.26,46,50.11,46H50.1c-7.15,0-12.93-5.7-12.88-13.01C37.17,25.76,42.95,20,50.1,20h0.01    C57.26,20,63.04,25.76,62.99,32.99z"/><path  d="M74.34,56.8c-4.68,8.57-13.78,14.37-24.24,14.37c-10.45,0-19.55-5.79-24.24-14.36c0.01-0.01,0.01-0.01,0.01-0.02    C28.83,52.82,32.54,50,36.45,50h27.31c3.92,0,7.62,2.82,10.57,6.79L74.34,56.8z"/></g><path fill="#000000" d="M37.22,32.99C37.17,25.76,42.95,20,50.1,20h0.01c7.15,0,12.93,5.76,12.88,12.99C63.04,40.3,57.26,46,50.11,46   H50.1C42.95,46,37.17,40.3,37.22,32.99z"/><path fill="#000000" d="M74.33,56.79c-4.68,8.56-13.78,14.36-24.23,14.36c-10.44,0-19.54-5.8-24.23-14.36   C28.83,52.82,32.54,50,36.45,50h27.31C67.68,50,71.38,52.82,74.33,56.79z"/></g>

</svg>